HIERARCHY
ROOT hip
{
	OFFSET 0.000000 0.000000 0.000000 
	CHANNELS 6 Xposition Yposition Zposition Xrotation Zrotation Yrotation
	JOINT abdomen
	{
		OFFSET 0.000000 3.402643 0.000000 
		CHANNELS 3 Xrotation Zrotation Yrotation
		JOINT chest
		{
			OFFSET 0.000000 8.438565 -0.680529 
			CHANNELS 3 Xrotation Zrotation Yrotation
			JOINT neck
			{
				OFFSET 0.000000 10.207942 -0.272212 
				CHANNELS 3 Xrotation Zrotation Yrotation
				JOINT head
				{
					OFFSET 0.000000 3.130431 0.000000 
					CHANNELS 3 Xrotation Zrotation Yrotation
					End Site
					{
						OFFSET 0.000000 3.130435 0.000000 
					}
				}
			}
			JOINT lCollar
			{
				OFFSET 3.470700 6.669187 -0.816635 
				CHANNELS 3 Yrotation Zrotation Xrotation
				JOINT lShldr
				{
					OFFSET 3.198488 0.000000 0.000000 
					CHANNELS 3 Zrotation Yrotation Xrotation
					JOINT lForeArm
					{
						OFFSET 10.139888 0.000000 0.000000 
						CHANNELS 3 Yrotation Zrotation Xrotation
						JOINT lHand
						{
							OFFSET 8.370511 0.000000 0.000000 
							CHANNELS 3 Zrotation Yrotation Xrotation
							End Site
							{
								OFFSET 4.083176 0.000000 0.000000 
							}
						}
					}
				}
			}
			JOINT rCollar
			{
				OFFSET -3.470700 6.669187 -0.816635 
				CHANNELS 3 Yrotation Zrotation Xrotation
				JOINT rShldr
				{
					OFFSET -3.198488 0.000000 0.000000 
					CHANNELS 3 Zrotation Yrotation Xrotation
					JOINT rForeArm
					{
						OFFSET -10.139888 0.000000 0.000000 
						CHANNELS 3 Yrotation Zrotation Xrotation
						JOINT rHand
						{
							OFFSET -8.370511 0.000000 0.000000 
							CHANNELS 3 Zrotation Yrotation Xrotation
							End Site
							{
								OFFSET -4.083176 0.000000 0.000000 
							}
						}
					}
				}
			}
		}
	}
	JOINT lThigh
	{
		OFFSET 5.308129 -1.633274 1.361059 
		CHANNELS 3 Xrotation Zrotation Yrotation
		JOINT lShin
		{
			OFFSET -2.041588 -20.007561 0.000000 
			CHANNELS 3 Xrotation Zrotation Yrotation
			JOINT lFoot
			{
				OFFSET 0.000000 -19.190928 -1.224953 
				CHANNELS 3 Xrotation Yrotation Zrotation
				End Site
				{
					OFFSET 0.000000 -2.449906 4.627600 
				}
			}
		}
	}
	JOINT rThigh
	{
		OFFSET -5.308129 -1.633274 1.361059 
		CHANNELS 3 Xrotation Zrotation Yrotation
		JOINT rShin
		{
			OFFSET 2.041588 -20.007561 0.000000 
			CHANNELS 3 Xrotation Zrotation Yrotation
			JOINT rFoot
			{
				OFFSET 0.000000 -19.190928 -1.224953 
				CHANNELS 3 Xrotation Yrotation Zrotation
				End Site
				{
					OFFSET 0.000000 -2.449906 4.627600 
				}
			}
		}
	}
}
MOTION
Frames: 20
Frame Time: 0.016667
0.108880 50.610859 1.404223 1.389851 -0.404937 9.150575 0.000000 0.000000 0.000000 2.124197 8.426713 -0.897681 -8.457032 0.000000 0.000000 -4.052993 -1.211761 19.946049 -2.812533 -0.096698 -0.019508 -93.019783 -6.175593 3.816042 -2.241195 -6.780483 2.879154 23.580994 -21.955811 4.098125 2.792995 0.077173 -0.019521 76.898689 6.425303 -1.561435 2.615645 6.335900 9.492400 -21.268761 27.586826 10.451112 -12.311604 22.931885 7.848640 11.762319 -7.891207 4.294451 5.070165 -3.197354 -15.826120 8.631890 -12.998299 -21.680889 2.421451 4.237894 1.119641 -6.829400 -5.246357 7.470781 
0.107285 50.611366 1.406326 1.389851 -0.404937 9.150575 0.000000 0.000000 0.000000 2.124197 8.426713 -0.897681 -8.457032 0.000000 0.000000 -4.052993 -1.211761 19.946049 -2.812533 -0.096698 -0.019508 -93.019783 -6.175593 3.816042 -2.241195 -6.780483 2.879154 23.580994 -21.955811 4.098125 2.792995 0.077173 -0.019521 76.898689 6.425303 -1.561435 2.615645 6.335900 9.492400 -21.268761 27.586826 10.451112 -12.311604 22.931887 7.848639 11.762320 -7.891205 4.294451 5.070163 -3.197354 -15.826120 8.746112 -13.034282 -21.782692 2.430716 4.243801 1.120393 -6.866026 -5.190040 7.473670 
0.104703 50.610065 1.408545 1.389230 -0.404836 9.238462 0.000000 0.000000 0.000000 2.127276 8.339004 -0.818972 -8.457032 0.000000 0.000000 -4.052993 -1.211761 19.946049 -2.812533 -0.096698 -0.019508 -93.019783 -6.175593 3.816042 -2.241195 -6.780483 2.879154 23.580994 -21.955811 4.098125 2.792995 0.077173 -0.019521 76.898689 6.425303 -1.561435 2.615645 6.335900 9.492400 -21.268761 27.586826 10.451112 -12.205265 22.797832 7.760989 11.715212 -7.824154 4.383450 5.089240 -3.156866 -15.627533 8.746110 -13.034280 -21.782694 2.430715 4.243801 1.120393 -6.865890 -5.190542 7.473417 
0.102122 50.608765 1.410757 1.388609 -0.404735 9.326350 0.000000 0.000000 0.000000 2.120344 8.251275 -0.738855 -8.457032 0.000000 0.000000 -4.052993 -1.211761 19.946049 -2.812533 -0.096698 -0.019508 -93.019783 -6.175593 3.816042 -2.241195 -6.780483 2.879154 23.580994 -21.955811 4.098125 2.792995 0.077173 -0.019521 76.898689 6.425303 -1.561435 2.615645 6.335900 9.492400 -21.268761 27.586826 10.451112 -12.078330 22.661396 7.695176 11.676000 -7.745833 4.481966 5.124453 -3.108080 -15.425281 8.746109 -13.034282 -21.782694 2.430717 4.243800 1.120393 -6.856791 -5.186892 7.475293 
0.101546 50.607800 1.411680 1.388609 -0.404735 9.326350 0.000000 0.000000 0.000000 2.120344 8.251275 -0.738855 -8.457032 0.000000 0.000000 -4.060900 -1.212434 19.857975 -2.812533 -0.096698 -0.019508 -93.029083 -6.087175 3.812478 -2.241195 -6.780483 2.879154 23.579292 -21.953463 4.006004 2.792995 0.077173 -0.019521 76.898689 6.425303 -1.561435 2.615645 6.335900 9.492400 -21.271997 27.583652 10.355804 -12.078330 22.661396 7.695176 11.676000 -7.745833 4.481965 5.124453 -3.108080 -15.425281 8.746110 -13.034282 -21.782694 2.430717 4.243800 1.120393 -6.933067 -5.293214 7.544401 
0.100969 50.606838 1.412604 1.388609 -0.404735 9.326350 0.000000 0.000000 0.000000 2.120344 8.251275 -0.738855 -8.457032 0.000000 0.000000 -4.059039 -1.213104 19.770105 -2.812533 -0.096698 -0.019508 -93.028557 -5.998895 3.817613 -2.241195 -6.780483 2.879154 23.574032 -21.955078 3.925851 2.792995 0.077173 -0.019521 76.898689 6.425303 -1.561435 2.615645 6.335900 9.492400 -21.270527 27.584082 10.273102 -12.078330 22.661396 7.695176 11.676000 -7.745835 4.481966 5.124453 -3.108080 -15.425281 8.746110 -13.034282 -21.782694 2.430717 4.243800 1.120393 -7.014013 -5.379817 7.599397 
0.100453 50.605419 1.414542 1.388609 -0.404735 9.326350 0.000000 0.000000 0.000000 2.120344 8.251275 -0.738855 -8.457032 0.000000 0.000000 -3.971148 -1.213104 19.770103 -2.812533 -0.096698 -0.019508 -93.028297 -6.004030 3.905895 -2.241195 -6.780483 2.879154 23.673798 -21.943420 3.915356 2.792995 0.077173 -0.019521 76.898689 6.425303 -1.561435 2.607528 6.330274 9.579665 -21.270527 27.584082 10.273102 -12.186534 22.614277 7.692695 11.680865 -7.703163 4.474648 5.206991 -3.232179 -15.581342 8.749067 -13.027084 -21.870575 2.485490 4.188514 1.124588 -6.988440 -5.447552 7.676951 
0.099939 50.604008 1.416474 1.388609 -0.404735 9.326350 0.000000 0.000000 0.000000 2.120344 8.251275 -0.738855 -8.457032 0.000000 0.000000 -3.883050 -1.213179 19.760344 -2.812533 -0.096698 -0.019508 -93.018181 -6.000095 3.992643 -2.241195 -6.780483 2.879154 23.759459 -21.935074 3.924151 2.792995 0.077173 -0.019521 76.898689 6.425303 -1.561435 2.599435 6.324638 9.668008 -21.270527 27.584082 10.273102 -12.294029 22.555710 7.690559 11.712401 -7.656118 4.475667 5.264091 -3.362419 -15.690056 8.739453 -13.027131 -21.949371 2.545230 4.151745 1.138567 -6.958599 -5.523545 7.729056 
0.098908 50.602589 1.420345 1.387989 -0.404632 9.414239 0.000000 0.000000 0.000000 2.123324 8.251427 -0.650472 -8.457032 0.000000 0.000000 -3.883050 -1.213179 19.760344 -2.812533 -0.096698 -0.019508 -92.939255 -5.907503 3.988242 -2.241195 -6.780483 2.879154 23.759459 -21.935074 3.924151 2.792995 0.077173 -0.019521 76.900787 6.344813 -1.562873 2.517963 6.331267 9.679482 -21.270527 27.584082 10.273102 -12.184326 22.511644 7.617392 11.586499 -7.663523 4.400945 5.187487 -3.302471 -15.687145 8.621465 -13.084692 -21.981276 2.545208 4.151715 1.148323 -6.974478 -5.459166 7.671581 
0.097878 50.601177 1.424216 1.387368 -0.404529 9.502129 0.000000 0.000000 0.000000 2.126304 8.251561 -0.562090 -8.457032 0.000000 0.000000 -3.883050 -1.213179 19.760344 -2.812533 -0.096698 -0.019508 -92.860367 -5.814914 3.985116 -2.241195 -6.780483 2.879154 23.759459 -21.935074 3.924151 2.792995 0.077173 -0.019521 76.912933 6.255077 -1.561045 2.427938 6.335817 9.680249 -21.270527 27.584082 10.273102 -12.079339 22.478003 7.525487 11.467789 -7.694494 4.323152 5.100466 -3.242658 -15.664515 8.509628 -13.138996 -22.003574 2.545041 4.140197 1.167791 -7.007823 -5.401278 7.600925 
0.098077 50.599701 1.427380 1.429562 -0.327476 9.502075 0.000000 0.000000 0.000000 2.126304 8.251561 -0.562090 -8.457032 0.000000 0.000000 -3.883050 -1.213179 19.760344 -2.812533 -0.096698 -0.019508 -92.860680 -5.819275 3.897334 -2.151739 -6.786220 2.889025 23.856895 -21.929514 3.820901 2.792995 0.077173 -0.019521 76.912888 6.255829 -1.471013 2.427938 6.335817 9.680249 -21.273575 27.673132 10.145030 -12.109932 22.461414 7.627375 11.467075 -7.690966 4.216332 5.113344 -3.165705 -15.557055 8.509628 -13.138992 -22.003572 2.655557 4.174098 1.166147 -6.979192 -5.404075 7.482567 
0.098274 50.598232 1.430538 1.471756 -0.250423 9.502033 0.000000 0.000000 0.000000 2.126304 8.251561 -0.562090 -8.457032 0.000000 0.000000 -3.883050 -1.213179 19.760344 -2.812533 -0.096698 -0.019508 -92.870720 -5.813235 3.810057 -2.062778 -6.782171 2.898890 23.940247 -21.927044 3.729605 2.792995 0.077173 -0.019521 76.912872 6.256581 -1.380982 2.427938 6.335817 9.680249 -21.289600 27.755440 10.012480 -12.147902 22.439835 7.744742 11.466006 -7.670960 4.120629 5.130203 -3.091746 -15.429657 8.509628 -13.138995 -22.003572 2.761846 4.221189 1.174384 -6.962657 -5.432731 7.363297 
0.099173 50.598232 1.434931 1.471756 -0.250423 9.502033 0.000000 0.000000 0.000000 2.036997 8.251547 -0.571755 -8.457032 0.000000 0.000000 -3.883050 -1.213179 19.760344 -2.812533 -0.096698 -0.019508 -92.782021 -5.720587 3.815958 -2.057498 -6.693904 2.898902 24.034719 -21.916319 3.639086 2.792995 0.077173 -0.019521 77.001320 6.256509 -1.380920 2.427938 6.335817 9.680249 -21.289600 27.755440 10.012480 -12.147902 22.439833 7.744742 11.468090 -7.681981 4.041915 5.142404 -3.178000 -15.538481 8.509628 -13.138995 -22.003572 2.761846 4.221189 1.174384 -6.962657 -5.432731 7.363297 
0.100075 50.598232 1.439316 1.471756 -0.250423 9.502033 0.000000 0.000000 0.000000 1.947691 8.251534 -0.581419 -8.457032 0.000000 0.000000 -3.883050 -1.213179 19.760344 -2.812533 -0.096698 -0.019508 -92.693398 -5.628425 3.812392 -2.052216 -6.605634 2.897784 24.118679 -21.904789 3.555894 2.792995 0.077173 -0.019521 77.089523 6.265971 -1.383031 2.427938 6.335817 9.680249 -21.289600 27.755440 10.012480 -12.147902 22.439833 7.744742 11.462984 -7.685676 3.955230 5.164954 -3.243127 -15.659955 8.509628 -13.138996 -22.003574 2.761846 4.221190 1.174384 -6.962657 -5.432731 7.363297 
0.102944 50.596809 1.444268 1.471372 -0.250358 9.589923 0.000000 0.000000 0.000000 1.947691 8.251534 -0.581419 -8.457032 0.000000 0.000000 -3.883050 -1.213179 19.760344 -2.812533 -0.096698 -0.019508 -92.605469 -5.628041 3.725281 -2.052216 -6.605634 2.897784 24.202059 -21.901783 3.464671 2.792995 0.077173 -0.019521 77.089523 6.265971 -1.383031 2.427938 6.335817 9.680249 -21.289600 27.755440 10.012480 -12.224785 22.397840 7.637109 11.450843 -7.693512 4.130727 5.138481 -3.268224 -15.588068 8.513200 -13.230662 -22.086601 2.778552 4.209056 1.322110 -7.075186 -5.404621 7.372840 
0.105811 50.595398 1.449214 1.480754 -0.250293 9.677813 0.000000 0.000000 0.000000 1.947691 8.251534 -0.581419 -8.457032 0.000000 0.000000 -3.883050 -1.213179 19.760344 -2.812533 -0.096698 -0.019508 -92.527267 -5.617028 3.638711 -2.052216 -6.605634 2.897784 24.295961 -21.899176 3.373466 2.792995 0.077173 -0.019521 77.089523 6.265971 -1.383031 2.427938 6.335817 9.680249 -21.289600 27.755440 10.012480 -12.294057 22.370840 7.530914 11.452945 -7.714832 4.294507 5.108109 -3.298411 -15.508034 8.509742 -13.325653 -22.180767 2.778020 4.208350 1.487960 -7.169643 -5.375257 7.426384 
0.110592 50.596809 1.454624 1.480754 -0.250293 9.677813 0.000000 0.000000 0.000000 1.947691 8.251534 -0.581419 -8.457032 0.000000 0.000000 -3.883050 -1.213179 19.760344 -2.812533 -0.096698 -0.019508 -92.439293 -5.616152 3.551636 -2.052216 -6.605634 2.897784 24.295961 -21.899176 3.373466 2.792995 0.077173 -0.019521 77.079720 6.266228 -1.294063 2.429486 6.331558 9.768517 -21.288538 27.756067 9.934458 -12.293631 22.379505 7.451549 11.461583 -7.723767 4.390008 4.991446 -3.262789 -15.495402 8.509742 -13.325654 -22.180767 2.846730 4.267886 1.512944 -7.131121 -5.526123 7.530688 
0.115368 50.598232 1.460038 1.480754 -0.250293 9.677813 0.000000 0.000000 0.000000 1.947691 8.251534 -0.581419 -8.457032 0.000000 0.000000 -3.883050 -1.213179 19.760344 -2.812533 -0.096698 -0.019508 -92.351265 -5.605265 3.464176 -2.052216 -6.605634 2.897784 24.295961 -21.899176 3.373466 2.792995 0.077173 -0.019521 77.079781 6.266721 -1.204030 2.431051 6.327317 9.856785 -21.290634 27.761734 9.834774 -12.302267 22.386433 7.341152 11.451148 -7.726158 4.497914 4.878695 -3.205509 -15.506271 8.509742 -13.325652 -22.180767 2.908295 4.320474 1.517703 -7.081440 -5.681083 7.665427 
0.119660 50.598232 1.467443 1.480754 -0.250293 9.677813 0.000000 0.000000 0.000000 1.947691 8.251534 -0.581419 -8.457032 0.000000 0.000000 -3.971148 -1.213104 19.770103 -2.812533 -0.096698 -0.019508 -92.351265 -5.605265 3.464176 -2.052310 -6.599527 2.986139 24.379372 -21.895800 3.282279 2.792995 0.077173 -0.019521 77.079781 6.266721 -1.204030 2.431051 6.327317 9.856785 -21.290634 27.761734 9.834774 -12.291936 22.278236 7.356777 11.452106 -7.723939 4.478653 4.914535 -3.204970 -15.482824 8.394500 -13.385875 -22.093327 2.923584 4.334291 1.431465 -7.108586 -5.690194 7.650697 
0.123949 50.598232 1.474845 1.480754 -0.250293 9.677813 0.000000 0.000000 0.000000 1.947691 8.251534 -0.581419 -8.457032 0.000000 0.000000 -4.059039 -1.213104 19.770105 -2.812533 -0.096698 -0.019508 -92.351265 -5.605265 3.464176 -2.052426 -6.593435 3.074493 24.473835 -21.884117 3.191923 2.792995 0.077173 -0.019521 77.079781 6.266721 -1.204030 2.431051 6.327317 9.856785 -21.290634 27.761734 9.834774 -12.291469 22.179039 7.341124 11.451149 -7.726156 4.497914 4.946178 -3.185952 -15.453766 8.285283 -13.442648 -22.006227 2.905174 4.335675 1.342200 -7.097930 -5.691327 7.650270 
